<svg width="21" height="20" viewBox="0 0 21 20" fill="none" xmlns="http://www.w3.org/2000/svg">
<g clip-path="url(#clip0_2_127)">
<g clip-path="url(#clip1_2_127)">
<path d="M9.71991 0C4.61168 0 0.428711 3.93778 0.0300293 8.94371L5.24061 11.0991C5.68193 10.7964 6.21491 10.6216 6.79056 10.6216C6.84173 10.6216 6.89291 10.6237 6.94409 10.6258L9.26156 7.26371C9.26156 7.24876 9.26156 7.23171 9.26156 7.21676C9.26156 5.19566 10.9074 3.54976 12.9286 3.54976C14.9497 3.54976 16.5956 5.19566 16.5956 7.21676C16.5956 9.23788 14.9497 10.8838 12.9286 10.8838C12.9009 10.8838 12.8731 10.8838 12.8454 10.8816L9.53868 13.2418C9.54085 13.2844 9.54085 13.3292 9.54085 13.3718C9.54085 14.8898 8.30644 16.1242 6.78844 16.1242C5.45594 16.1242 4.34305 15.1734 4.08933 13.9134L0.364752 12.3719C1.51816 16.4526 5.26833 19.4459 9.71991 19.4459C15.0904 19.4459 19.4418 15.0924 19.4418 9.724C19.4418 4.35352 15.0883 0 9.71991 0Z" fill="white"/>
<path d="M6.12298 14.7533L4.92908 14.2608C5.14014 14.7021 5.50685 15.0709 5.99292 15.2735C7.04404 15.7106 8.25498 15.2117 8.69415 14.1606C8.90521 13.6511 8.90739 13.0904 8.69633 12.5808C8.48739 12.0712 8.0908 11.6726 7.58127 11.4615C7.07598 11.2505 6.53445 11.259 6.05904 11.4381L7.29345 11.9476C8.06951 12.2717 8.43621 13.1607 8.11215 13.9368C7.78809 14.7085 6.89904 15.0752 6.12298 14.7533Z" fill="white"/>
<path d="M15.3719 7.21671C15.3719 5.86929 14.2761 4.77345 12.9286 4.77345C11.5812 4.77345 10.4854 5.86929 10.4854 7.21671C10.4854 8.56412 11.5812 9.66 12.9286 9.66C14.2761 9.66 15.3719 8.56412 15.3719 7.21671ZM11.0973 7.21247C11.0973 6.19976 11.9202 5.37681 12.9329 5.37681C13.9456 5.37681 14.7686 6.19765 14.7686 7.21247C14.7686 8.22512 13.9478 9.04812 12.9329 9.04812C11.9181 9.04812 11.0973 8.22729 11.0973 7.21247Z" fill="white"/>
</g>
</g>
<defs>
<clipPath id="clip0_2_127">
<rect width="20" height="20" fill="white" transform="translate(0.0300293)"/>
</clipPath>
<clipPath id="clip1_2_127">
<rect width="19.4118" height="20" fill="white" transform="translate(0.0300293)"/>
</clipPath>
</defs>
</svg>
